<svg xmlns="http://www.w3.org/2000/svg" width="163.04" height="16.39" viewBox="0 0 163.04 16.39">
  <g id="logo-mtx" transform="translate(-6.95 -11.1)">
    <path id="Tracé_1" data-name="Tracé 1" d="M40.68,13.17a2.07,2.07,0,1,1-2.07-2.07A2.074,2.074,0,0,1,40.68,13.17Z" fill="#f18c00"/>
    <path id="Tracé_2" data-name="Tracé 2" d="M6.95,16.13h3.57v1.62a5.389,5.389,0,0,1,1.56-1.44,3.867,3.867,0,0,1,1.9-.43,3.343,3.343,0,0,1,1.89.47,3.446,3.446,0,0,1,1.14,1.4,6.207,6.207,0,0,1,1.65-1.48,3.943,3.943,0,0,1,1.84-.39,3.116,3.116,0,0,1,2.52,1.06,5,5,0,0,1,.91,3.31V27.2H20.1V20.9a1.991,1.991,0,0,0-.26-1.12,1.143,1.143,0,0,0-.97-.57,1.319,1.319,0,0,0-1.1.54,2.853,2.853,0,0,0-.42,1.74V27.2H13.5V21.11a4.29,4.29,0,0,0-.07-.99,1.405,1.405,0,0,0-.42-.68,1.063,1.063,0,0,0-.71-.25,1.292,1.292,0,0,0-1.08.55,3.034,3.034,0,0,0-.42,1.81v5.64H6.95Z" fill="#1d1d1b"/>
    <path id="Tracé_3" data-name="Tracé 3" d="M28.37,20.69a3.171,3.171,0,0,1,.44-1.49,1.689,1.689,0,0,1,1.46-.8,1.637,1.637,0,0,1,1.27.53,3.078,3.078,0,0,1,.6,1.76H28.37Zm7.66,1.55a8.339,8.339,0,0,0-.65-3.55,4.558,4.558,0,0,0-1.89-2.08,6.777,6.777,0,0,0-3.39-.72,5.43,5.43,0,0,0-4.15,1.61,5.9,5.9,0,0,0-1.5,4.2,6.433,6.433,0,0,0,.75,3.17,4.93,4.93,0,0,0,1.89,1.97,6.614,6.614,0,0,0,3.12.62,7.017,7.017,0,0,0,3.51-.72,5.794,5.794,0,0,0,2.09-2.39l-3.78-.39a2.662,2.662,0,0,1-.67.7,2,2,0,0,1-1.07.32,1.767,1.767,0,0,1-1.45-.72,2.987,2.987,0,0,1-.5-1.52h7.68v-.5Z" fill="#1d1d1b"/>
    <path id="Tracé_4" data-name="Tracé 4" d="M40.5,16.13V27.2H36.66V16.13a4.2,4.2,0,0,0,1.95.46A3.851,3.851,0,0,0,40.5,16.13Z" fill="#1d1d1b"/>
    <path id="Tracé_5" data-name="Tracé 5" d="M41.78,11.93h3.84V27.21H41.78Z" fill="#1d1d1b"/>
    <path id="Tracé_6" data-name="Tracé 6" d="M46.92,11.93h3.84V27.21H46.92Z" fill="#1d1d1b"/>
    <path id="Tracé_7" data-name="Tracé 7" d="M55.36,20.69a3.171,3.171,0,0,1,.44-1.49,1.766,1.766,0,0,1,2.74-.27,3.01,3.01,0,0,1,.59,1.76H55.36Zm7.67,1.55a8.339,8.339,0,0,0-.65-3.55,4.578,4.578,0,0,0-1.9-2.08,6.777,6.777,0,0,0-3.39-.72,5.393,5.393,0,0,0-4.14,1.61,5.9,5.9,0,0,0-1.5,4.2,6.433,6.433,0,0,0,.75,3.17,4.93,4.93,0,0,0,1.89,1.97,6.614,6.614,0,0,0,3.12.62,7.017,7.017,0,0,0,3.51-.72,5.794,5.794,0,0,0,2.09-2.39l-3.78-.39a2.823,2.823,0,0,1-.66.7,2.02,2.02,0,0,1-1.07.32,1.723,1.723,0,0,1-1.44-.72,2.987,2.987,0,0,1-.5-1.52h7.68v-.5Z" fill="#1d1d1b"/>
    <path id="Tracé_8" data-name="Tracé 8" d="M74.05,27.21H70.47V25.42a5.516,5.516,0,0,1-1.62,1.57,3.972,3.972,0,0,1-2,.47,3.063,3.063,0,0,1-2.47-1.05,4.884,4.884,0,0,1-.9-3.23V16.14h3.86v6.09a2.444,2.444,0,0,0,.34,1.48,1.167,1.167,0,0,0,.97.44,1.328,1.328,0,0,0,1.12-.58,3.68,3.68,0,0,0,.44-2.1V16.14h3.84V27.21Z" fill="#1d1d1b"/>
    <path id="Tracé_9" data-name="Tracé 9" d="M75.14,16.13h3.59v1.81a4.335,4.335,0,0,1,1.07-1.62,2.134,2.134,0,0,1,1.36-.44,3.794,3.794,0,0,1,1.86.58l-1.19,3.03a2.787,2.787,0,0,0-1.07-.32,1.28,1.28,0,0,0-1.16.69,7.556,7.556,0,0,0-.6,3.63V27.2H75.14V16.13Z" fill="#1d1d1b"/>
    <path id="Tracé_10" data-name="Tracé 10" d="M87.31,11.93v4.2h2.11v3.11H87.31v3.92a2.315,2.315,0,0,0,.12.93.68.68,0,0,0,.66.35,3.9,3.9,0,0,0,1.19-.27l.28,2.92a11.263,11.263,0,0,1-2.65.34,4.232,4.232,0,0,1-2.11-.4,2.374,2.374,0,0,1-1-1.23,7.876,7.876,0,0,1-.32-2.68V19.23H82.07V16.12h1.41V14.1Z" fill="#1d1d1b"/>
    <path id="Tracé_11" data-name="Tracé 11" d="M96.76,22.62a3.136,3.136,0,0,1-.23,1.29,2.017,2.017,0,0,1-.78.84,2.178,2.178,0,0,1-1.19.35,1.238,1.238,0,0,1-.92-.32,1.1,1.1,0,0,1-.31-.82,1.132,1.132,0,0,1,.32-.78,3.7,3.7,0,0,1,1.47-.68,16.82,16.82,0,0,0,1.65-.56v.68Zm-2.73-3.89a2.446,2.446,0,0,1,1.41-.33,1.338,1.338,0,0,1,1.02.31,1.548,1.548,0,0,1,.29,1.09,12.929,12.929,0,0,1-1.35.51c-.43.13-1.36.36-2.79.68a4.292,4.292,0,0,0-2.47,1.21,3.2,3.2,0,0,0-.67,2.08,3.078,3.078,0,0,0,.93,2.27,3.7,3.7,0,0,0,2.71.92,5.616,5.616,0,0,0,2.36-.46,5.1,5.1,0,0,0,1.5-1.15c.05.32.09.56.13.71a5.943,5.943,0,0,0,.28.65H101a6.107,6.107,0,0,1-.39-1.13,6.508,6.508,0,0,1-.09-1.23V19.97a4.94,4.94,0,0,0-.29-1.64A3.161,3.161,0,0,0,99.46,17a3.374,3.374,0,0,0-1.74-.89,14.642,14.642,0,0,0-2.77-.21,10.474,10.474,0,0,0-2,.18,4.28,4.28,0,0,0-1.45.5,3.369,3.369,0,0,0-1.12,1.06,4.886,4.886,0,0,0-.6,1.67l3.66.42A1.919,1.919,0,0,1,94.03,18.73Z" fill="#1d1d1b"/>
    <path id="Tracé_12" data-name="Tracé 12" d="M112.08,27.21H108.5V25.42a5.618,5.618,0,0,1-1.61,1.57,3.972,3.972,0,0,1-2,.47,3.1,3.1,0,0,1-2.48-1.05,4.884,4.884,0,0,1-.9-3.23V16.14h3.86v6.09a2.444,2.444,0,0,0,.34,1.48,1.18,1.18,0,0,0,.97.44,1.328,1.328,0,0,0,1.12-.58,3.693,3.693,0,0,0,.43-2.1V16.14h3.84V27.21Z" fill="#1d1d1b"/>
    <path id="Tracé_13" data-name="Tracé 13" d="M112.91,16.13h4.54l1.59,3.08,1.86-3.08h4.22l-3.41,5.27,3.65,5.8h-4.48l-1.84-3.57-2.16,3.57h-4.16l3.63-5.8Z" fill="#1d1d1b"/>
    <path id="Tracé_14" data-name="Tracé 14" d="M137.3,22.87l3.64.45a5.935,5.935,0,0,1-.99,2.19,4.729,4.729,0,0,1-1.75,1.44,6.269,6.269,0,0,1-2.71.51,9.064,9.064,0,0,1-2.65-.33,4.489,4.489,0,0,1-1.82-1.06,5.331,5.331,0,0,1-1.2-1.72,6.781,6.781,0,0,1-.43-2.62,6.759,6.759,0,0,1,.53-2.84,5.14,5.14,0,0,1,1.06-1.49,4.652,4.652,0,0,1,1.37-.98,6.926,6.926,0,0,1,2.87-.51,6.1,6.1,0,0,1,3.73.97,5.148,5.148,0,0,1,1.8,2.83l-3.62.53a1.878,1.878,0,0,0-3.33-.66,3.668,3.668,0,0,0-.58,2.27,3.161,3.161,0,0,0,.58,2.06,1.832,1.832,0,0,0,1.48.7,1.916,1.916,0,0,0,1.26-.42A2.864,2.864,0,0,0,137.3,22.87Z" fill="#1d1d1b"/>
    <path id="Tracé_15" data-name="Tracé 15" d="M145.32,19.52a1.668,1.668,0,0,1,1.38-.72,1.61,1.61,0,0,1,1.33.71,3.494,3.494,0,0,1,.54,2.14,3.746,3.746,0,0,1-.53,2.24,1.655,1.655,0,0,1-1.36.69,1.623,1.623,0,0,1-1.36-.71,3.533,3.533,0,0,1-.54-2.19A3.473,3.473,0,0,1,145.32,19.52Zm-2.55,6.58a6.32,6.32,0,0,0,8.14-.28,5.868,5.868,0,0,0,1.53-4.18,5.94,5.94,0,0,0-1.24-3.82,6.217,6.217,0,0,0-8.71-.29,5.831,5.831,0,0,0-1.55,4.17A5.683,5.683,0,0,0,142.77,26.1Z" fill="#1d1d1b"/>
    <path id="Tracé_16" data-name="Tracé 16" d="M153.02,16.13h3.57v1.62a5.389,5.389,0,0,1,1.56-1.44,3.867,3.867,0,0,1,1.9-.43,3.343,3.343,0,0,1,1.89.47,3.446,3.446,0,0,1,1.14,1.4,6.208,6.208,0,0,1,1.65-1.48,3.943,3.943,0,0,1,1.84-.39,3.109,3.109,0,0,1,2.51,1.06,5,5,0,0,1,.91,3.31V27.2h-3.84V20.9a1.912,1.912,0,0,0-.26-1.12,1.143,1.143,0,0,0-.97-.57,1.35,1.35,0,0,0-1.11.54,2.859,2.859,0,0,0-.41,1.74V27.2h-3.84V21.11a4.289,4.289,0,0,0-.07-.99,1.405,1.405,0,0,0-.42-.68,1.037,1.037,0,0,0-.7-.25,1.323,1.323,0,0,0-1.09.55,2.963,2.963,0,0,0-.42,1.81v5.64h-3.84Z" fill="#1d1d1b"/>
    <path id="Tracé_17" data-name="Tracé 17" d="M129.42,25.6a1.89,1.89,0,1,1-1.89-1.89A1.882,1.882,0,0,1,129.42,25.6Z" fill="#f18c00"/>
  </g>
</svg>